<?xml version="1.0" encoding="UTF-8" standalone="no"?>
<svg
   viewBox="0 0 32 32"
   version="1.1"
   id="svg3"
   sodipodi:docname="logo.svg"
   inkscape:version="1.3.2 (091e20e, 2023-11-25, custom)"
   xmlns:inkscape="http://www.inkscape.org/namespaces/inkscape"
   xmlns:sodipodi="http://sodipodi.sourceforge.net/DTD/sodipodi-0.dtd"
   xmlns="http://www.w3.org/2000/svg"
   xmlns:svg="http://www.w3.org/2000/svg">
  <sodipodi:namedview
     id="namedview3"
     pagecolor="#ffffff"
     bordercolor="#000000"
     borderopacity="0.25"
     inkscape:showpageshadow="2"
     inkscape:pageopacity="0.0"
     inkscape:pagecheckerboard="0"
     inkscape:deskcolor="#d1d1d1"
     inkscape:zoom="24.28125"
     inkscape:cx="15.979408"
     inkscape:cy="12.705277"
     inkscape:window-width="1920"
     inkscape:window-height="991"
     inkscape:window-x="-9"
     inkscape:window-y="-9"
     inkscape:window-maximized="1"
     inkscape:current-layer="svg3" />
  <defs
     id="defs1">
    <style
       id="style1">.cls-1{fill:#d8e1ef;}.cls-2{fill:#0e6ae0;}.cls-3{fill:#0593ff;}</style>
  </defs>
  <title
     id="title1" />
  <g
     data-name="Chat Lock"
     id="Chat_Lock">
    <path
       class="cls-1"
       d="M25,5H7A3,3,0,0,0,4,8V20a3,3,0,0,0,3,3H8v3a1,1,0,0,0,.53.88,1,1,0,0,0,1-.05L15.3,23H25a3,3,0,0,0,3-3V8A3,3,0,0,0,25,5Z"
       id="path1" />
    <path
       class="cls-2"
       d="M18,14H14a1,1,0,0,1-1-1V11a3,3,0,0,1,6,0v2A1,1,0,0,1,18,14Zm-3-2h2V11a1,1,0,0,0-2,0Z"
       id="path2"
       style="fill:#01a6f4;fill-opacity:1" />
    <rect
       class="cls-3"
       height="8"
       rx="2"
       ry="2"
       width="8"
       x="12"
       y="12"
       id="rect2"
       inkscape:label="rect2"
       style="fill:#6a68d9;fill-opacity:1" />
    <path
       class="cls-2"
       d="M16,17a1,1,0,0,1-1-1,1,1,0,0,1,2,0A1,1,0,0,1,16,17Z"
       id="path3"
       inkscape:label="path3"
       style="fill:#01a6f4;fill-opacity:1" />
  </g>
</svg>
